<svg xmlns="http://www.w3.org/2000/svg" width="15.987" height="19.596" viewBox="0 0 15.987 19.596"><defs><style>.a{fill:#fff;}</style></defs><g transform="translate(-399.999 -391.161)"><path class="a" d="M514.168,495.278V491.4a.4.4,0,0,0-.4-.4H504.4a.4.4,0,0,0-.4.4v3.878a.4.4,0,0,0,.4.4h9.373A.4.4,0,0,0,514.168,495.278Zm-.792-.4h-8.581V491.8h8.581Z" transform="translate(-101.093 -97.048)"/><path class="a" d="M648.531,737.478h-1.69a.4.4,0,0,0,0,.792h1.69a.4.4,0,0,0,0-.792Z" transform="translate(-239.548 -336.622)"/><path class="a" d="M648.531,833.16h-1.69a.4.4,0,0,0,0,.792h1.69a.4.4,0,0,0,0-.792Z" transform="translate(-239.548 -429.626)"/><path class="a" d="M648.531,928.846h-1.69a.4.4,0,0,0,0,.792h1.69a.4.4,0,0,0,0-.792Z" transform="translate(-239.548 -522.633)"/><path class="a" d="M780.547,737.478h-1.69a.4.4,0,0,0,0,.792h1.69a.4.4,0,1,0,0-.792Z" transform="translate(-367.867 -336.622)"/><path class="a" d="M780.547,833.16h-1.69a.4.4,0,0,0,0,.792h1.69a.4.4,0,1,0,0-.792Z" transform="translate(-367.867 -429.626)"/><path class="a" d="M780.547,928.846h-1.69a.4.4,0,0,0,0,.792h1.69a.4.4,0,1,0,0-.792Z" transform="translate(-367.867 -522.633)"/><path class="a" d="M506.089,737.478H504.4a.4.4,0,1,0,0,.792h1.69a.4.4,0,0,0,0-.792Z" transform="translate(-101.093 -336.622)"/><path class="a" d="M506.089,833.16H504.4a.4.4,0,1,0,0,.792h1.69a.4.4,0,0,0,0-.792Z" transform="translate(-101.093 -429.626)"/><path class="a" d="M506.089,928.846H504.4a.4.4,0,1,0,0,.792h1.69a.4.4,0,0,0,0-.792Z" transform="translate(-101.093 -522.633)"/><path class="a" d="M415.986,393.544a2.383,2.383,0,0,0-2.383-2.383H402.382A2.383,2.383,0,0,0,400,393.544v5.4h0v9.427a2.386,2.386,0,0,0,2.383,2.383H413.6a2.386,2.386,0,0,0,2.383-2.383v-9.426h0Zm-.792,14.829a1.593,1.593,0,0,1-1.591,1.591H402.382a1.593,1.593,0,0,1-1.591-1.591V393.544a1.591,1.591,0,0,1,1.591-1.591H413.6a1.591,1.591,0,0,1,1.591,1.591Z"/></g></svg>