<svg xmlns="http://www.w3.org/2000/svg" width="23.444" height="21.693" viewBox="0 0 23.444 21.693"><defs><style>.a{fill:#fff;}</style></defs><g transform="translate(7.768 17.57)"><path class="a" d="M171.718,402.828a2.062,2.062,0,1,0,2.062,2.062A2.064,2.064,0,0,0,171.718,402.828Zm0,2.972a.911.911,0,1,1,.911-.911A.912.912,0,0,1,171.718,405.8Z" transform="translate(-169.656 -402.828)"/></g><g transform="translate(15 17.57)"><path class="a" d="M329.663,402.828a2.062,2.062,0,1,0,2.062,2.062A2.064,2.064,0,0,0,329.663,402.828Zm0,2.972a.911.911,0,1,1,.911-.911A.912.912,0,0,1,329.663,405.8Z" transform="translate(-327.601 -402.828)"/></g><g transform="translate(8.745 6.714)"><path class="a" d="M199.82,165.755h-8.249a.576.576,0,1,0,0,1.151h8.249a.576.576,0,0,0,0-1.151Z" transform="translate(-190.996 -165.755)"/></g><g transform="translate(9.194 9.703)"><path class="a" d="M208.728,231.035h-7.351a.576.576,0,0,0,0,1.151h7.351a.576.576,0,0,0,0-1.151Z" transform="translate(-200.802 -231.035)"/></g><g transform="translate(0 0)"><g transform="translate(0 0)"><path class="a" d="M23.184,23.264a1.147,1.147,0,0,0-.892-.424H4.362L4,21.082a1.153,1.153,0,0,0-.669-.824L.8,19.162a.576.576,0,0,0-.458,1.056l2.527,1.1L5.658,34.834a1.156,1.156,0,0,0,1.128.919h13.79a.576.576,0,1,0,0-1.151H6.785l-.339-1.645H20.682a1.155,1.155,0,0,0,1.127-.919l1.61-7.815A1.147,1.147,0,0,0,23.184,23.264Zm-2.5,8.542H6.209L4.6,23.991H22.292Z" transform="translate(0 -19.114)"/></g></g></svg>