<svg xmlns="http://www.w3.org/2000/svg" width="95.536" height="33.671" viewBox="0 0 95.536 33.671"><defs><style>.a{fill:#ff3a18;}.b{fill:#fff;}</style></defs><g transform="translate(0)"><g transform="translate(0)"><path class="a" d="M-5.143,0S-9.3,0-9.3,4.163V29.508s0,4.163,4.16,4.163H82.072s4.161,0,4.161-4.163V4.163S86.233,0,82.072,0Z" transform="translate(9.303)"/></g><g transform="translate(9.044 7.589)"><path class="b" d="M-4.94-7.84a26.056,26.056,0,0,1-1.938,4C-8.839-.715-8.936-.521-8.936.085c0,.388.218.727.945,1.478.824.873,1.09,1.042,1.453,1.042a.631.631,0,0,0,.581-.363c.364-.558.364-.558.533-.558a2.077,2.077,0,0,1,.775.533c.533.533.606.605.823.605a5.971,5.971,0,0,0,2.253-.848,10.831,10.831,0,0,0,4.82-4.992A14.017,14.017,0,0,0,4.991-8.131a6.907,6.907,0,0,0-1.938-4.241A4.507,4.507,0,0,0-.41-13.608a23.106,23.106,0,0,0-3.851.388c-.7.17-.945.582-.945,1.648l-.024.727a2.227,2.227,0,0,0-.024.388,1.09,1.09,0,0,0,.436.945.716.716,0,0,1,.291.46,1.149,1.149,0,0,1-.121.339ZM-.459-9.9c1.017,0,1.6.388,1.6,1.042A14.061,14.061,0,0,1-.9-3.962c-.92,1.43-1.816,2.327-2.349,2.327-.169,0-.315-.1-.315-.218a.289.289,0,0,1,.1-.194C-2.493-3.4-.653-7.912-.653-8.906A.476.476,0,0,0-.8-9.294c-.387-.291-.387-.291-.387-.364,0-.121.339-.242.726-.242m13.646-.751a1.262,1.262,0,0,0,.145-.436,2.464,2.464,0,0,0-.945-1.454,5.675,5.675,0,0,0-1.817-.824c-.145,0-.314.121-.678.46a.7.7,0,0,0-.339.606.583.583,0,0,1-.1.363,5.928,5.928,0,0,1-.339.679A23.656,23.656,0,0,0,7.544-7.67c-.218.582-.1.291-.339.873-.218.509-.436,1.091-.678,1.721C6.188-4.3,5.848-3.5,5.509-2.654,5.34-2.121,5.17-1.635,5.025-1.2c-.1.315-.194.63-.315.921a2.781,2.781,0,0,0-.194.824c0,.291.1.436.533.7l.169.121.267.243c.388.606.388.606.46.7a1.843,1.843,0,0,1,.242.339.188.188,0,0,0,.218.145A3.4,3.4,0,0,0,7.641,2.46l.242-.1c.387-.145.412-.218.678-1.187L8.682.618A5,5,0,0,1,8.9-.036q.255-.763.8-2.472c.145-.339.29-.679.436-1.042.242-.654.46-1.26.7-1.842a26.026,26.026,0,0,1,1.187-2.69,15.607,15.607,0,0,0,.751-1.7l.121-.291ZM12.207.909c.46.9.581,1.066,1.066,1.212a6.669,6.669,0,0,0,1.042.291c.484,0,.63-.218,1.162-1.6.194-.485.412-1.042.678-1.623.242-.606.267-.606.7-.7a.781.781,0,0,0,.436-.121.614.614,0,0,1,.388-.1c.508,0,.726.072.726.242a1.085,1.085,0,0,1-.121.461.745.745,0,0,0-.1.388c0,.024-.363.8-.436.921-.29.533-.315.655-.315.9a.691.691,0,0,0,.509.7,2.154,2.154,0,0,1,.581.315c.533.582.533.582.63.63a1.942,1.942,0,0,0,.847.34.616.616,0,0,0,.169-.048l.145-.049.169-.024a1.147,1.147,0,0,0,.872-.824c.194-.727.508-1.818.945-3.247a62.809,62.809,0,0,0,1.6-7.707c.024-.291.048-.363.072-.533a1.231,1.231,0,0,0,.048-.218,2.261,2.261,0,0,0-.242-.63,8.157,8.157,0,0,0-.654-.606c-.145-.072-.218-.17-.218-.218a.4.4,0,0,1,.121-.218,1.483,1.483,0,0,0,.387-.751c0-.29-.581-.775-1.526-1.284a1.982,1.982,0,0,1-.557-.339c-.412-.315-.412-.315-.606-.315-.388,0-.484.072-1.139.8A37.076,37.076,0,0,0,16.422-9.2l-.218.436a2.761,2.761,0,0,0-.315.388,1.406,1.406,0,0,0-.266.363,3.337,3.337,0,0,0-.412.775,3.074,3.074,0,0,1-.388.8c-.194.315-.1.218-.315.339l-.145.1a.142.142,0,0,0-.048.121c-.412,1.066-.46,1.115-1.09,1.357-.484.17-.751.412-.751.7a2.488,2.488,0,0,1,.048.485,3.277,3.277,0,0,0,.1.654,1,1,0,0,1,.024.242c0,.194-.024.218-.315.7a5.079,5.079,0,0,0-.678,1.6.7.7,0,0,0,.121.412l.145.17.145.194Zm8.114-8.8a14.961,14.961,0,0,1-.581,2.157c-.218.7-.291.775-.654.8a6.371,6.371,0,0,0-.726.024c-.194,0-.339-.1-.339-.242a13.155,13.155,0,0,1,.9-1.842c.533-.9,1.066-1.551,1.284-1.551.121,0,.194.1.194.267a.182.182,0,0,1-.024.121l-.024.145Zm11.2.9a5.672,5.672,0,0,1-.194,1.067,11.453,11.453,0,0,0-.315,1.43c-.145.873-.242,1.43-.29,1.624a15.5,15.5,0,0,0-.388,2.4c0,.436.1.558.751,1.09.194.17.339.315.484.46.46.46.751.63,1.09.63.412,0,.606-.266.823-1.066a9.575,9.575,0,0,1,1.139-2.423c.242-.485.484-.946.727-1.406a11.928,11.928,0,0,1,.969-1.672.948.948,0,0,0,.121-.218,4.822,4.822,0,0,0,.243-.436c.048-.121.121-.194.169-.194A.156.156,0,0,1,37-5.562,4.715,4.715,0,0,1,36.659-4.5,17.916,17.916,0,0,0,35.5-1.054c-.291,1.7-.291,1.7-.291,1.769A2.38,2.38,0,0,0,36.3,2.266a3.037,3.037,0,0,0,1.356.751s.242-.1.775-.315c.63-.267.775-.412.8-.873.145-2.763,1.114-6.543,3.1-12.068a2.055,2.055,0,0,0,.218-.727,3.2,3.2,0,0,0-.8-1.527c-.92-1.018-1.453-1.454-1.744-1.454-.363,0-1.139.63-2.083,1.7a31.081,31.081,0,0,0-2.592,3.32c-.1.17-.194.267-.242.267-.073,0-.145-.1-.145-.218v-.1a10.6,10.6,0,0,0,.145-2.424,1.73,1.73,0,0,0-1.017-1.818c-1.405-.969-1.405-.969-1.841-.969a1.216,1.216,0,0,0-1.066.581,44.89,44.89,0,0,0-2.834,4.8c-1.042,2.06-1.841,3.635-2.422,4.726A10.6,10.6,0,0,0,24.427-.23c0,.824.7,1.987,1.187,1.987H25.9l.508.121A.652.652,0,0,1,26.559,2c.557.509.557.509.8.509.339,0,.7-.509.969-1.406l.412-1.381a13.986,13.986,0,0,1,.751-2.157c.315-.8.63-1.575.92-2.351.194-.485.364-1.018.533-1.575a1.1,1.1,0,0,1,.533-.8Zm17.889-5.7a.982.982,0,0,1-.387-.388c-.29-.436-.315-.46-.557-.46a6.212,6.212,0,0,0-2.349.993c-.243.291-.243.291-1.769,4.023C43.067-5.344,42.7-3.841,42.7-1.733a3.948,3.948,0,0,0,1.162,3.054,4.861,4.861,0,0,0,3.245,1.5c1.817,0,3.73-1.7,5.45-4.871C54.039-4.786,55.3-8.785,55.3-10.772a1.767,1.767,0,0,0-.751-1.624c-1.162-.8-1.7-1.115-2.01-1.115-.436,0-.606.291-.751,1.236-.048.194-.073.267-.945,3.3a23.181,23.181,0,0,1-1.574,4.217c-.92,2.036-1.962,3.757-2.253,3.757-.194,0-.339-.34-.339-.751A36.591,36.591,0,0,1,49-9.148c.242-.558.46-1.091.654-1.672a1.422,1.422,0,0,1,.121-.291,1.92,1.92,0,0,1,.267-.606,1,1,0,0,0,.169-.291c0-.1-.145-.267-.363-.388Zm10.447-.824c-.533.048-.606.072-.678.145a2.923,2.923,0,0,1-.412.218c-.218.1-.242.17-.242.655a3.116,3.116,0,0,0,.218,1.284,2.668,2.668,0,0,1,.194.654,2.246,2.246,0,0,1-.242.727c-.242.509-.484,1.018-.7,1.551-1.162,2.787-1.162,2.787-1.55,3.684A19.517,19.517,0,0,0,54.821-.182c0,.243,0,.243.581,1.236.315.582.411.654.848.727a2,2,0,0,1,1.017.315c.606.436.606.436.751.436.315,0,.7-.8,1.308-2.86C60-2.581,60.343-3.7,60.343-3.7c.1.024.145.606.194,1.745a6.521,6.521,0,0,0,.727,3.3c.484.8,1.453,1.648,1.938,1.648a7.826,7.826,0,0,0,1.429-.558l.581-.291c.63-.266.678-.315.678-.8a1.185,1.185,0,0,0-.17-.606L65.187.012a6.867,6.867,0,0,1-.532-1.842,8.783,8.783,0,0,1-.364-2.229c0-.315,0-.315.751-.679a6.825,6.825,0,0,0,1.986-1.527c1.211-1.284,1.7-2.205,1.7-3.2a5.1,5.1,0,0,0-1.308-3.2A4.857,4.857,0,0,0,64.024-14a29.775,29.775,0,0,0-3.584.315l-.194.072Zm3,4.387c.315-.97.315-.97.436-1.018.1-.1.485-.121,1.211-.121.363.025.557.17.557.412,0,.388-.847,1.236-1.622,1.624a1.311,1.311,0,0,0-.267.121c-.194.121-.339.218-.484.291a.578.578,0,0,1-.267.145.2.2,0,0,1-.17-.218,2.22,2.22,0,0,1,.291-.655l.121-.194Z" transform="translate(8.936 14.189)"/></g></g></svg>