<svg xmlns="http://www.w3.org/2000/svg" width="19.523" height="19.614" viewBox="0 0 19.523 19.614"><defs><style>.a{fill:#fff;}</style></defs><g transform="translate(-484.436 -481.396)"><g transform="translate(495.083 494.49)"><path class="a" d="M1201.64,1353.526l-.163-.647a.4.4,0,0,0-.481-.287l-8.128,2.048a.408.408,0,0,0-.092.036,3.654,3.654,0,0,1,.369,1.386h.007a.4.4,0,0,0,.1-.012l8.1-2.041a.4.4,0,0,0,.287-.481Z" transform="translate(-1192.776 -1352.579)"/></g><g transform="translate(490.384 484.992)"><path class="a" d="M892.417,729.539l-2.167-8.6a.4.4,0,0,0-.481-.287l-9.276,2.337a.4.4,0,0,0-.287.481l1.7,6.756,0,.015a3.634,3.634,0,0,1,1.948.74,3.593,3.593,0,0,1,.839.909.356.356,0,0,0,.046-.009l7.386-1.861A.4.4,0,0,0,892.417,729.539Z" transform="translate(-880.193 -720.638)"/></g><g transform="translate(484.436 481.396)"><path class="a" d="M490.213,494.979a3.615,3.615,0,0,1,1.374-.385.387.387,0,0,0-.012-.11l-2.854-11.328a.4.4,0,0,0-.221-.264l-3.23-1.461a.4.4,0,0,0-.524.2l-.275.608a.4.4,0,0,0,.2.524l2.763,1.25,2.736,10.859A.387.387,0,0,0,490.213,494.979Z" transform="translate(-484.436 -481.396)"/></g><g transform="translate(489.033 495.369)"><path class="a" d="M794.8,1411.612a2.819,2.819,0,0,0-4.454,2.923,2.79,2.79,0,0,0,1.015,1.545,2.839,2.839,0,0,0,1.719.586h0a2.838,2.838,0,0,0,.689-.085,2.819,2.819,0,0,0,1.031-4.969Zm-1.357,3.675a1.484,1.484,0,0,1-1.8-1.078,1.487,1.487,0,0,1,1.077-1.8,1.485,1.485,0,1,1,.726,2.881Z" transform="translate(-790.261 -1411.026)"/></g></g></svg>